<svg width="32" height="32" viewBox="0 0 32 32" fill="none" xmlns="http://www.w3.org/2000/svg">
<circle cx="16" cy="16" r="16" fill="#01A2D3"/>
<path fill-rule="evenodd" clip-rule="evenodd" d="M15.9999 17.5294C18.4756 17.5294 20.3859 15.5683 20.3859 13.2645C20.3859 10.9606 18.4756 8.99954 15.9999 8.99954C13.5243 8.99954 11.614 10.9606 11.614 13.2645C11.614 15.5683 13.5243 17.5294 15.9999 17.5294ZM18.8069 13.2645C18.8069 14.7915 17.5502 16.0294 15.9999 16.0294C14.4496 16.0294 13.1929 14.7915 13.1929 13.2645C13.1929 11.7374 14.4496 10.4995 15.9999 10.4995C17.5502 10.4995 18.8069 11.7374 18.8069 13.2645ZM12.5789 20.5224C12.5789 20.5249 12.5791 20.5244 12.5802 20.5211C12.5894 20.4937 12.6636 20.2728 13.2443 20.0128C13.8348 19.7483 14.7651 19.5443 16 19.5443C17.2349 19.5443 18.1652 19.7483 18.7557 20.0128C19.3364 20.2728 19.4106 20.4937 19.4198 20.5211C19.4209 20.5244 19.4211 20.5249 19.4211 20.5224L19.4211 21.8725V22.1627V22.2294V22.2453V22.2492V22.2502V22.2504V22.2505V22.2505C19.4211 22.6647 19.7745 23.0005 20.2105 23.0005C20.6465 23.0005 21 22.6647 21 22.2505V22.2505V22.2504V22.2502V22.2492V22.2453V22.2294V22.1627V21.8725V20.5224C21 19.6348 20.226 19.0129 19.4289 18.6559C18.5723 18.2724 17.3973 18.0443 16 18.0443C14.6027 18.0443 13.4277 18.2724 12.5711 18.6559C11.774 19.0129 11 19.6348 11 20.5224V20.5275V20.5325V20.5376V20.5427V20.5477V20.5528V20.5578V20.5629V20.568V20.573V20.5781V20.5832V20.5882V20.5933V20.5983V20.6034V20.6084V20.6135V20.6186V20.6236V20.6287V20.6337V20.6388V20.6438V20.6489V20.6539V20.659V20.664V20.6691V20.6741V20.6792V20.6842V20.6893V20.6943V20.6993V20.7044V20.7094V20.7144V20.7195V20.7245V20.7295V20.7346V20.7396V20.7446V20.7496V20.7547V20.7597V20.7647V20.7697V20.7747V20.7798V20.7848V20.7898V20.7948V20.7998V20.8048V20.8098V20.8148V20.8198V20.8248V20.8298V20.8348V20.8398V20.8447V20.8497V20.8547V20.8597V20.8647V20.8696V20.8746V20.8796V20.8845V20.8895V20.8944V20.8994V20.9044V20.9093V20.9142V20.9192V20.9241V20.9291V20.934V20.9389V20.9439V20.9488V20.9537V20.9586V20.9635V20.9685V20.9734V20.9783V20.9832V20.9881V20.993V20.9979V21.0027V21.0076V21.0125V21.0174V21.0222V21.0271V21.032V21.0368V21.0417V21.0465V21.0514V21.0562V21.0611V21.0659V21.0707V21.0756V21.0804V21.0852V21.09V21.0948V21.0996V21.1044V21.1092V21.114V21.1188V21.1236V21.1284V21.1331V21.1379V21.1427V21.1474V21.1522V21.1569V21.1617V21.1664V21.1712V21.1759V21.1806V21.1853V21.19V21.1947V21.1995V21.2041V21.2088V21.2135V21.2182V21.2229V21.2276V21.2322V21.2369V21.2415V21.2462V21.2508V21.2555V21.2601V21.2647V21.2693V21.274V21.2786V21.2832V21.2878V21.2923V21.2969V21.3015V21.3061V21.3106V21.3152V21.3198V21.3243V21.3288V21.3334V21.3379V21.3424V21.3469V21.3514V21.3559V21.3604V21.3649V21.3694V21.3739V21.3784V21.3828V21.3873V21.3917V21.3962V21.4006V21.405V21.4094V21.4138V21.4183V21.4227V21.427V21.4314V21.4358V21.4402V21.4445V21.4489V21.4532V21.4576V21.4619V21.4662V21.4705V21.4749V21.4792V21.4835V21.4877V21.492V21.4963V21.5006V21.5048V21.5091V21.5133V21.5175V21.5217V21.526V21.5302V21.5344V21.5386V21.5427V21.5469V21.5511V21.5552V21.5594V21.5635V21.5677V21.5718V21.5759V21.58V21.5841V21.5882V21.5923V21.5963V21.6004V21.6045V21.6085V21.6125V21.6166V21.6206V21.6246V21.6286V21.6326V21.6366V21.6406V21.6445V21.6485V21.6524V21.6564V21.6603V21.6642V21.6681V21.672V21.6759V21.6798V21.6836V21.6875V21.6914V21.6952V21.699V21.7028V21.7067V21.7105V21.7143V21.718V21.7218V21.7256V21.7293V21.7331V21.7368V21.7405V21.7442V21.7479V21.7516V21.7553V21.759V21.7626V21.7663V21.7699V21.7736V21.7772V21.7808V21.7844V21.788V21.7915V21.7951V21.7987V21.8022V21.8057V21.8092V21.8128V21.8163V21.8197V21.8232V21.8267V21.8301V21.8336V21.837V21.8404V21.8439V21.8473V21.8506V21.854V21.8574V21.8607V21.8641V21.8674V21.8707V21.874V21.8773V21.8806V21.8839V21.8871V21.8904V21.8936V21.8969V21.9001V21.9033V21.9065V21.9096V21.9128V21.916V21.9191V21.9222V21.9253V21.9284V21.9315V21.9346V21.9377V21.9407V21.9438V21.9468V21.9498V21.9528V21.9558V21.9588V21.9618V21.9647V21.9677V21.9706V21.9735V21.9764V21.9793V21.9822V21.985V21.9879V21.9907V21.9935V21.9963V21.9991V22.0019V22.0047V22.0075V22.0102V22.0129V22.0156V22.0183V22.021V22.0237V22.0264V22.029V22.0317V22.0343V22.0369V22.0395V22.0421V22.0446V22.0472V22.0497V22.0523V22.0548V22.0573V22.0597V22.0622V22.0647V22.0671V22.0695V22.0719V22.0743V22.0767V22.0791V22.0814V22.0838V22.0861V22.0884V22.0907V22.093V22.0953V22.0975V22.0998V22.102V22.1042V22.1064V22.1086V22.1107V22.1129V22.115V22.1171V22.1192V22.1213V22.1234V22.1254V22.1275V22.1295V22.1315V22.1335V22.1355V22.1375V22.1394V22.1413V22.1433V22.1452V22.147V22.1489V22.1508V22.1526V22.1544V22.1562V22.158V22.1598V22.1616V22.1633V22.1651V22.1668V22.1685V22.1701V22.1718V22.1735V22.1751V22.1767V22.1783V22.1799V22.1814V22.183V22.1845V22.186V22.1875V22.189V22.1905V22.1919V22.1934V22.1948V22.1962V22.1976V22.1989V22.2003V22.2016V22.2029V22.2042V22.2055V22.2068V22.208V22.2093V22.2105V22.2117V22.2128V22.214V22.2152V22.2163V22.2174V22.2185V22.2195V22.2206V22.2216V22.2227V22.2237V22.2247V22.2256V22.2266V22.2275V22.2284V22.2293V22.2302V22.231V22.2319V22.2327V22.2335V22.2343V22.2351V22.2358V22.2366V22.2373V22.238V22.2386V22.2393V22.2399V22.2406V22.2412V22.2418V22.2423V22.2429V22.2434V22.2439V22.2444V22.2449V22.2453V22.2458V22.2462V22.2466V22.247V22.2473V22.2477V22.248V22.2483V22.2486V22.2488V22.2491V22.2493V22.2495V22.2497V22.2499V22.25V22.2501V22.2502V22.2503V22.2504V22.2504V22.2505C11 22.6647 11.3535 23.0005 11.7895 23.0005C12.2255 23.0005 12.5789 22.6647 12.5789 22.2505V22.2504V22.2504V22.2503V22.2502V22.2501V22.25V22.2499V22.2497V22.2495V22.2493V22.2491V22.2488V22.2486V22.2483V22.248V22.2477V22.2473V22.247V22.2466V22.2462V22.2458V22.2453V22.2449V22.2444V22.2439V22.2434V22.2429V22.2423V22.2418V22.2412V22.2406V22.2399V22.2393V22.2386V22.238V22.2373V22.2366V22.2358V22.2351V22.2343V22.2335V22.2327V22.2319V22.231V22.2302V22.2293V22.2284V22.2275V22.2266V22.2256V22.2247V22.2237V22.2227V22.2216V22.2206V22.2195V22.2185V22.2174V22.2163V22.2152V22.214V22.2128V22.2117V22.2105V22.2093V22.208V22.2068V22.2055V22.2042V22.2029V22.2016V22.2003V22.1989V22.1976V22.1962V22.1948V22.1934V22.1919V22.1905V22.189V22.1875V22.186V22.1845V22.183V22.1814V22.1799V22.1783V22.1767V22.1751V22.1735V22.1718V22.1701V22.1685V22.1668V22.1651V22.1633V22.1616V22.1598V22.158V22.1562V22.1544V22.1526V22.1508V22.1489V22.147V22.1452V22.1433V22.1413V22.1394V22.1375V22.1355V22.1335V22.1315V22.1295V22.1275V22.1254V22.1234V22.1213V22.1192V22.1171V22.115V22.1129V22.1107V22.1086V22.1064V22.1042V22.102V22.0998V22.0975V22.0953V22.093V22.0907V22.0884V22.0861V22.0838V22.0814V22.0791V22.0767V22.0743V22.0719V22.0695V22.0671V22.0647V22.0622V22.0597V22.0573V22.0548V22.0523V22.0497V22.0472V22.0446V22.0421V22.0395V22.0369V22.0343V22.0317V22.029V22.0264V22.0237V22.021V22.0183V22.0156V22.0129V22.0102V22.0075V22.0047V22.0019V21.9991V21.9963V21.9935V21.9907V21.9879V21.985V21.9822V21.9793V21.9764V21.9735V21.9706V21.9677V21.9647V21.9618V21.9588V21.9558V21.9528V21.9498V21.9468V21.9438V21.9407V21.9377V21.9346V21.9315V21.9284V21.9253V21.9222V21.9191V21.916V21.9128V21.9096V21.9065V21.9033V21.9001V21.8969V21.8936V21.8904V21.8871V21.8839V21.8806V21.8773V21.874V21.8707V21.8674V21.8641V21.8607V21.8574V21.854V21.8506V21.8473V21.8439V21.8404V21.837V21.8336V21.8301V21.8267V21.8232V21.8197V21.8163V21.8128V21.8092V21.8057V21.8022V21.7987V21.7951V21.7915V21.788V21.7844V21.7808V21.7772V21.7736V21.7699V21.7663V21.7626V21.759V21.7553V21.7516V21.7479V21.7442V21.7405V21.7368V21.7331V21.7293V21.7256V21.7218V21.718V21.7143V21.7105V21.7067V21.7028V21.699V21.6952V21.6914V21.6875V21.6836V21.6798V21.6759V21.672V21.6681V21.6642V21.6603V21.6564V21.6524V21.6485V21.6445V21.6406V21.6366V21.6326V21.6286V21.6246V21.6206V21.6166V21.6125V21.6085V21.6045V21.6004V21.5963V21.5923V21.5882V21.5841V21.58V21.5759V21.5718V21.5677V21.5635V21.5594V21.5552V21.5511V21.5469V21.5427V21.5386V21.5344V21.5302V21.526V21.5217V21.5175V21.5133V21.5091V21.5048V21.5006V21.4963V21.492V21.4877V21.4835V21.4792V21.4749V21.4705V21.4662V21.4619V21.4576V21.4532V21.4489V21.4445V21.4402V21.4358V21.4314V21.427V21.4227V21.4183V21.4138V21.4094V21.405V21.4006V21.3962V21.3917V21.3873V21.3828V21.3784V21.3739V21.3694V21.3649V21.3604V21.3559V21.3514V21.3469V21.3424V21.3379V21.3334V21.3288V21.3243V21.3198V21.3152V21.3106V21.3061V21.3015V21.2969V21.2923V21.2878V21.2832V21.2786V21.274V21.2693V21.2647V21.2601V21.2555V21.2508V21.2462V21.2415V21.2369V21.2322V21.2276V21.2229V21.2182V21.2135V21.2088V21.2041V21.1995V21.1947V21.19V21.1853V21.1806V21.1759V21.1712V21.1664V21.1617V21.1569V21.1522V21.1474V21.1427V21.1379V21.1331V21.1284V21.1236V21.1188V21.114V21.1092V21.1044V21.0996V21.0948V21.09V21.0852V21.0804V21.0756V21.0707V21.0659V21.0611V21.0562V21.0514V21.0465V21.0417V21.0368V21.032V21.0271V21.0222V21.0174V21.0125V21.0076V21.0027V20.9979V20.993V20.9881V20.9832V20.9783V20.9734V20.9685V20.9635V20.9586V20.9537V20.9488V20.9439V20.9389V20.934V20.9291V20.9241V20.9192V20.9142V20.9093V20.9044V20.8994V20.8944V20.8895V20.8845V20.8796V20.8746V20.8696V20.8647V20.8597V20.8547V20.8497V20.8447V20.8398V20.8348V20.8298V20.8248V20.8198V20.8148V20.8098V20.8048V20.7998V20.7948V20.7898V20.7848V20.7798V20.7747V20.7697V20.7647V20.7597V20.7547V20.7496V20.7446V20.7396V20.7346V20.7295V20.7245V20.7195V20.7144V20.7094V20.7044V20.6993V20.6943V20.6893V20.6842V20.6792V20.6741V20.6691V20.664V20.659V20.6539V20.6489V20.6438V20.6388V20.6337V20.6287V20.6236V20.6186V20.6135V20.6084V20.6034V20.5983V20.5933V20.5882V20.5832V20.5781V20.573V20.568V20.5629V20.5578V20.5528V20.5477V20.5427V20.5376V20.5325V20.5275V20.5224Z" fill="white"/>
</svg>
