<svg width="24" height="24" viewBox="0 0 24 24" fill="none" xmlns="http://www.w3.org/2000/svg">
<path d="M22 21V19C21.9993 18.1137 21.7044 17.2528 21.1614 16.5523C20.6184 15.8519 19.8581 15.3516 19 15.13" stroke="black" stroke-width="1.5" stroke-linecap="round" stroke-linejoin="round"/>
<path d="M18 21V19C18 17.9391 17.5786 16.9217 16.8284 16.1716C16.0783 15.4214 15.0609 15 14 15H6C4.93913 15 3.92172 15.4214 3.17157 16.1716C2.42143 16.9217 2 17.9391 2 19V21" stroke="black" stroke-width="1.5" stroke-linecap="round" stroke-linejoin="round"/>
<path d="M15 3.13C15.8604 3.35031 16.623 3.85071 17.1676 4.55232C17.7122 5.25392 18.0078 6.11683 18.0078 7.005C18.0078 7.89318 17.7122 8.75608 17.1676 9.45769C16.623 10.1593 15.8604 10.6597 15 10.88" stroke="black" stroke-width="1.5" stroke-linecap="round" stroke-linejoin="round"/>
<path d="M10 11C12.2091 11 14 9.20914 14 7C14 4.79086 12.2091 3 10 3C7.79086 3 6 4.79086 6 7C6 9.20914 7.79086 11 10 11Z" stroke="black" stroke-width="1.5" stroke-linecap="round" stroke-linejoin="round"/>
</svg>
