<svg width="24" height="24" viewBox="0 0 24 24" fill="none" xmlns="http://www.w3.org/2000/svg">
<path d="M21.0741 4.2019L20.4505 4.61857V4.61857L21.0741 4.2019ZM21.0741 17.1386L20.4505 16.7219L21.0741 17.1386ZM19.7071 18.5055L19.2905 17.8819V17.8819L19.7071 18.5055ZM14.4774 19.3388L14.4741 18.5888C14.0612 18.5906 13.7274 18.9259 13.7274 19.3388H14.4774ZM14.4774 19.3405L15.1482 19.6759C15.2003 19.5718 15.2274 19.4569 15.2274 19.3405H14.4774ZM12.8946 22.5061L12.2238 22.1707L12.2238 22.1707L12.8946 22.5061ZM11.1057 22.5061L11.7766 22.1707L11.1057 22.5061ZM9.52295 19.3405H8.77295C8.77295 19.4569 8.80006 19.5718 8.85213 19.6759L9.52295 19.3405ZM9.52295 19.3388H10.273C10.273 18.9259 9.93916 18.5906 9.52623 18.5888L9.52295 19.3388ZM4.2932 18.5055L4.70988 17.8819L4.70988 17.8819L4.2932 18.5055ZM2.92628 17.1386L2.30268 17.5553H2.30268L2.92628 17.1386ZM2.92628 4.2019L2.30268 3.78522H2.30268L2.92628 4.2019ZM4.2932 2.83497L3.87653 2.21137V2.21137L4.2932 2.83497ZM19.7071 2.83497L19.2905 3.45857V3.45857L19.7071 2.83497ZM22.659 10.6703C22.659 8.94628 22.6599 7.59686 22.5508 6.5241C22.4404 5.4388 22.2112 4.5538 21.6977 3.78522L20.4505 4.61857C20.7719 5.09961 20.9602 5.70921 21.0585 6.6759C21.1581 7.65513 21.159 8.91507 21.159 10.6703H22.659ZM21.6977 17.5553C22.2112 16.7867 22.4404 15.9017 22.5508 14.8164C22.6599 13.7437 22.659 12.3942 22.659 10.6703H21.159C21.159 12.4254 21.1581 13.6854 21.0585 14.6646C20.9602 15.6313 20.7719 16.2409 20.4505 16.7219L21.6977 17.5553ZM20.1238 19.1291C20.7467 18.7129 21.2815 18.1782 21.6977 17.5553L20.4505 16.7219C20.1437 17.181 19.7495 17.5752 19.2905 17.8819L20.1238 19.1291ZM14.4807 20.0888C15.8134 20.083 16.8949 20.0577 17.7878 19.9343C18.6928 19.8092 19.4525 19.5777 20.1238 19.1291L19.2905 17.8819C18.8701 18.1628 18.3512 18.3421 17.5824 18.4484C16.8015 18.5563 15.814 18.583 14.4741 18.5888L14.4807 20.0888ZM15.2274 19.3405V19.3388H13.7274V19.3405H15.2274ZM13.5654 22.8415L15.1482 19.6759L13.8066 19.0051L12.2238 22.1707L13.5654 22.8415ZM10.4349 22.8415C11.0798 24.1313 12.9205 24.1313 13.5654 22.8415L12.2238 22.1707C12.1316 22.3549 11.8687 22.3549 11.7766 22.1707L10.4349 22.8415ZM8.85213 19.6759L10.4349 22.8415L11.7766 22.1707L10.1938 19.0051L8.85213 19.6759ZM8.77295 19.3388V19.3405H10.273V19.3388H8.77295ZM3.87653 19.1291C4.54784 19.5777 5.30756 19.8092 6.21255 19.9343C7.10548 20.0577 8.18698 20.083 9.51968 20.0888L9.52623 18.5888C8.18638 18.583 7.19883 18.5563 6.41794 18.4484C5.6491 18.3421 5.13022 18.1628 4.70988 17.8819L3.87653 19.1291ZM2.30268 17.5553C2.71886 18.1782 3.25366 18.7129 3.87653 19.1291L4.70988 17.8819C4.2508 17.5752 3.85663 17.181 3.54988 16.7219L2.30268 17.5553ZM1.34131 10.6703C1.34131 12.3942 1.3404 13.7437 1.44953 14.8164C1.55994 15.9017 1.78913 16.7867 2.30268 17.5553L3.54988 16.7219C3.22846 16.2409 3.04017 15.6313 2.94183 14.6646C2.84222 13.6854 2.84131 12.4254 2.84131 10.6703H1.34131ZM2.30268 3.78522C1.78913 4.5538 1.55994 5.4388 1.44953 6.5241C1.3404 7.59686 1.34131 8.94628 1.34131 10.6703H2.84131C2.84131 8.91507 2.84222 7.65513 2.94183 6.6759C3.04017 5.70921 3.22846 5.09961 3.54988 4.61857L2.30268 3.78522ZM3.87653 2.21137C3.25366 2.62756 2.71887 3.16235 2.30268 3.78522L3.54988 4.61857C3.85663 4.15949 4.2508 3.76532 4.70988 3.45857L3.87653 2.21137ZM10.7616 1.25C9.03759 1.25 7.68816 1.24909 6.61541 1.35822C5.53011 1.46863 4.64511 1.69782 3.87653 2.21137L4.70988 3.45857C5.19092 3.13715 5.80052 2.94886 6.76721 2.85052C7.74644 2.75091 9.00637 2.75 10.7616 2.75V1.25ZM13.2388 1.25H10.7616V2.75H13.2388V1.25ZM20.1238 2.21137C19.3552 1.69782 18.4702 1.46863 17.3849 1.35822C16.3122 1.24909 14.9627 1.25 13.2388 1.25V2.75C14.994 2.75 16.2539 2.75091 17.2331 2.85052C18.1998 2.94886 18.8094 3.13715 19.2905 3.45857L20.1238 2.21137ZM21.6977 3.78522C21.2815 3.16235 20.7467 2.62756 20.1238 2.21137L19.2905 3.45857C19.7495 3.76532 20.1437 4.15949 20.4505 4.61857L21.6977 3.78522Z" fill="#181818"/>
<circle cx="16" cy="11" r="1" fill="#181818"/>
<circle cx="12" cy="11" r="1" fill="#181818"/>
<circle cx="8" cy="11" r="1" fill="#181818"/>
</svg>
