<svg width="18" height="18" viewBox="0 0 18 18" fill="none" xmlns="http://www.w3.org/2000/svg">
<path fill-rule="evenodd" clip-rule="evenodd" d="M15.9441 2.22769C14.0257 0.309299 10.92 0.294362 8.98325 2.19421L6.83137 4.30509C6.53567 4.59515 6.5311 5.07 6.82117 5.3657C7.11123 5.6614 7.58608 5.66597 7.88178 5.3759L10.0337 3.26502C11.383 1.94136 13.5468 1.95177 14.8834 3.28835C16.225 4.6299 16.2297 6.8035 14.8941 8.15093L12.7875 10.2761C12.4959 10.5703 12.498 11.0452 12.7922 11.3368C13.0864 11.6284 13.5612 11.6263 13.8528 11.3321L15.9594 9.20691C17.8765 7.27296 17.8696 4.1532 15.9441 2.22769ZM5.37043 7.98793C5.66341 7.69512 5.66356 7.22025 5.37076 6.92727C5.07795 6.63428 4.60308 6.63413 4.3101 6.92693L2.29839 8.93739C0.380127 10.8545 0.379643 13.9637 2.29731 15.8814C4.21885 17.803 7.33583 17.798 9.25126 15.8704L11.1598 13.9497C11.4517 13.6559 11.4502 13.181 11.1564 12.889C10.8626 12.5971 10.3877 12.5986 10.0957 12.8924L8.18723 14.8131C6.85704 16.1518 4.69241 16.1552 3.35797 14.8208C2.02622 13.489 2.02656 11.3297 3.35872 9.99838L5.37043 7.98793ZM11.5344 7.65762C11.8273 7.36472 11.8273 6.88985 11.5344 6.59696C11.2415 6.30406 10.7666 6.30406 10.4737 6.59695L6.54104 10.5296C6.24815 10.8225 6.24814 11.2974 6.54104 11.5903C6.83393 11.8832 7.3088 11.8832 7.6017 11.5903L11.5344 7.65762Z" fill="#2D5BFF"/>
</svg>
