<svg width="20" height="20" viewBox="0 0 20 20" fill="none" xmlns="http://www.w3.org/2000/svg">
<path fill-rule="evenodd" clip-rule="evenodd" d="M2.90576 9.12371C2.4218 9.12371 2.02948 9.51604 2.02948 10C2.02948 10.484 2.4218 10.8763 2.90576 10.8763L9.03979 10.8763L9.03979 17.0103C9.03979 17.4943 9.43212 17.8866 9.91608 17.8866C10.4 17.8866 10.7924 17.4943 10.7924 17.0103L10.7924 10.8763L16.9264 10.8763C17.4104 10.8763 17.8027 10.484 17.8027 10C17.8027 9.51604 17.4104 9.12371 16.9264 9.12371L10.7924 9.12371L10.7924 2.98968C10.7924 2.50572 10.4 2.11339 9.91608 2.11339C9.43212 2.11339 9.03979 2.50572 9.03979 2.98968L9.03979 9.12371L2.90576 9.12371Z" fill="#01A2D3"/>
</svg>
