<svg width="32" height="32" viewBox="0 0 32 32" fill="none" xmlns="http://www.w3.org/2000/svg">
<path d="M0 8C0 3.58172 3.58172 0 8 0H24C28.4183 0 32 3.58172 32 8V24C32 28.4183 28.4183 32 24 32H8C3.58172 32 0 28.4183 0 24V8Z" fill="#ECF9FF"/>
<path d="M19.0001 23C19.0001 23.7957 18.684 24.5587 18.1214 25.1213C17.5588 25.6839 16.7958 26 16.0001 26C15.2045 26 14.4414 25.6839 13.8788 25.1213C13.3162 24.5587 13.0001 23.7957 13.0001 23M16.7211 9.003L15.2551 9C11.9111 8.992 9.00811 11.709 8.98511 15V18.79C8.98511 19.58 8.88511 20.351 8.45411 21.008L8.16711 21.446C7.73011 22.11 8.20011 23 8.98511 23H23.0151C23.8001 23 24.2691 22.11 23.8331 21.446L23.5461 21.008C23.1161 20.351 23.0151 19.579 23.0151 18.789V15.001C22.9751 11.709 20.0651 9.011 16.7211 9.003V9.003Z" stroke="#5C5C5C" stroke-width="1.52" stroke-linecap="round" stroke-linejoin="round"/>
<path d="M16 6C16.5304 6 17.0391 6.21071 17.4142 6.58579C17.7893 6.96086 18 7.46957 18 8V9H14V8C14 7.46957 14.2107 6.96086 14.5858 6.58579C14.9609 6.21071 15.4696 6 16 6Z" stroke="#5C5C5C" stroke-width="1.52" stroke-linecap="round" stroke-linejoin="round"/>
</svg>
