<svg width="24" height="24" viewBox="0 0 24 24" fill="none" xmlns="http://www.w3.org/2000/svg">
<path fill-rule="evenodd" clip-rule="evenodd" d="M2.75 12C2.75 6.89137 6.89137 2.75 12 2.75C17.1086 2.75 21.25 6.89137 21.25 12C21.25 17.1086 17.1086 21.25 12 21.25C6.89137 21.25 2.75 17.1086 2.75 12ZM12 1.25C6.06294 1.25 1.25 6.06294 1.25 12C1.25 17.9371 6.06294 22.75 12 22.75C17.9371 22.75 22.75 17.9371 22.75 12C22.75 6.06294 17.9371 1.25 12 1.25ZM12.8928 6.89996C12.8928 6.48574 12.557 6.14996 12.1428 6.14996C11.7286 6.14996 11.3928 6.48574 11.3928 6.89996V8.03399H10.3642C9.62224 8.03399 9.03149 8.3556 8.64879 8.85776C8.28364 9.33689 8.13834 9.93609 8.15068 10.4914C8.16302 11.0474 8.33454 11.633 8.69529 12.0974C9.06974 12.5793 9.64171 12.9156 10.3642 12.9156H13.607C14.0311 12.9156 14.2524 13.0564 14.3685 13.1887C14.4946 13.3324 14.5663 13.5461 14.5459 13.7953C14.5064 14.2794 14.129 14.7972 13.329 14.7972H9.14818C8.73397 14.7972 8.39818 15.133 8.39818 15.5472C8.39818 15.9614 8.73397 16.2972 9.14818 16.2972H11.3928V17.2386C11.3928 17.6528 11.7286 17.9886 12.1428 17.9886C12.557 17.9886 12.8928 17.6528 12.8928 17.2386V16.2972H13.329C14.9647 16.2972 15.9424 15.1243 16.041 13.9175C16.0897 13.3213 15.9262 12.6896 15.4959 12.1993C15.0555 11.6975 14.3991 11.4156 13.607 11.4156H10.3642C10.1485 11.4156 9.99796 11.3292 9.87981 11.1771C9.74795 11.0074 9.65673 10.7476 9.65031 10.4581C9.64386 10.1681 9.72375 9.9219 9.84182 9.76698C9.94234 9.63508 10.0928 9.53399 10.3642 9.53399H12.1883H14.0124C14.4266 9.53399 14.7624 9.1982 14.7624 8.78399C14.7624 8.36978 14.4266 8.03399 14.0124 8.03399H12.8928V6.89996Z" fill="#181818"/>
</svg>
