<svg width="17" height="16" viewBox="0 0 17 16" fill="none" xmlns="http://www.w3.org/2000/svg">
<path fill-rule="evenodd" clip-rule="evenodd" d="M14.4928 2.47604C12.8999 0.883144 10.3211 0.870741 8.71301 2.44824L6.9915 4.13694C6.6958 4.42701 6.69123 4.90186 6.9813 5.19755C7.27136 5.49325 7.74621 5.49782 8.04191 5.20776L9.76342 3.51905C10.7842 2.51774 12.421 2.52561 13.4321 3.5367C14.447 4.55154 14.4506 6.1958 13.4402 7.21509L11.7549 8.91524C11.4633 9.20942 11.4654 9.68429 11.7596 9.97589C12.0538 10.2675 12.5286 10.2654 12.8202 9.97123L14.5055 8.27108C16.0973 6.66526 16.0916 4.07484 14.4928 2.47604ZM6.03382 7.29639C6.3268 7.00359 6.32695 6.52872 6.03415 6.23573C5.74135 5.94275 5.26647 5.9426 4.97349 6.2354L3.36412 7.84377C1.7709 9.43599 1.7705 12.0184 3.36322 13.6111C4.95917 15.2071 7.54798 15.203 9.13885 13.602L10.6657 12.0654C10.9576 11.7716 10.9561 11.2967 10.6623 11.0048C10.3685 10.7128 9.89359 10.7143 9.60163 11.0082L8.07483 12.5447C7.06919 13.5567 5.43273 13.5593 4.42388 12.5505C3.41708 11.5437 3.41733 9.91125 4.42445 8.90476L6.03382 7.29639ZM10.965 7.03211C11.2579 6.73922 11.2579 6.26434 10.965 5.97145C10.6721 5.67856 10.1972 5.67856 9.90434 5.97145L6.75821 9.11757C6.46532 9.41046 6.46532 9.88533 6.75821 10.1782C7.0511 10.4711 7.52598 10.4711 7.81887 10.1782L10.965 7.03211Z" fill="#181818"/>
</svg>
