<svg width="24" height="24" viewBox="0 0 24 24" fill="none" xmlns="http://www.w3.org/2000/svg">
<path fill-rule="evenodd" clip-rule="evenodd" d="M13.5556 5.77778C13.5556 6.75962 12.7596 7.55556 11.7778 7.55556C10.7959 7.55556 10 6.75962 10 5.77778C10 4.79594 10.7959 4 11.7778 4C12.7596 4 13.5556 4.79594 13.5556 5.77778ZM13.5556 12C13.5556 12.9818 12.7596 13.7778 11.7778 13.7778C10.7959 13.7778 10 12.9818 10 12C10 11.0182 10.7959 10.2222 11.7778 10.2222C12.7596 10.2222 13.5556 11.0182 13.5556 12ZM11.7778 20C12.7596 20 13.5556 19.2041 13.5556 18.2222C13.5556 17.2404 12.7596 16.4444 11.7778 16.4444C10.7959 16.4444 10 17.2404 10 18.2222C10 19.2041 10.7959 20 11.7778 20Z" fill="#181818"/>
</svg>
