<svg width="21" height="20" viewBox="0 0 21 20" fill="none" xmlns="http://www.w3.org/2000/svg">
<path fill-rule="evenodd" clip-rule="evenodd" d="M9.40254 3.41783C10.8383 3.09344 12.3404 3.24185 13.6849 3.84092C14.0633 4.00951 14.5066 3.83946 14.6752 3.4611C14.8438 3.08275 14.6738 2.63937 14.2954 2.47078C12.6554 1.74006 10.8232 1.55904 9.07197 1.95471C7.32073 2.35038 5.7443 3.30154 4.5778 4.66634C3.4113 6.03114 2.71723 7.73646 2.5991 9.52795C2.48097 11.3194 2.94511 13.1011 3.9223 14.6073C4.89949 16.1134 6.33737 17.2634 8.02149 17.8856C9.70562 18.5078 11.5458 18.5689 13.2675 18.0598C14.9892 17.5508 16.5002 16.4988 17.5752 15.0608C18.6502 13.6229 19.2315 11.8759 19.2326 10.0805L19.2326 10.0801V9.38312C19.2326 8.96891 18.8968 8.63312 18.4826 8.63312C18.0684 8.63312 17.7326 8.96891 17.7326 9.38312V10.0797C17.7317 11.5516 17.2551 12.9838 16.3738 14.1627C15.4925 15.3416 14.2537 16.2041 12.8422 16.6214C11.4306 17.0387 9.92203 16.9886 8.54133 16.4785C7.16062 15.9684 5.98179 15.0257 5.18066 13.7909C4.37952 12.5561 3.999 11.0954 4.09585 9.62665C4.1927 8.15792 4.76172 6.75984 5.71806 5.64092C6.6744 4.52201 7.96681 3.74221 9.40254 3.41783ZM19.0132 4.54956C19.3059 4.25652 19.3057 3.78165 19.0126 3.4889C18.7196 3.19616 18.2447 3.19639 17.952 3.48943L10.9066 10.5419L9.16442 8.79977C8.87153 8.50688 8.39665 8.50688 8.10376 8.79977C7.81087 9.09267 7.81087 9.56754 8.10376 9.86043L10.3765 12.1332C10.5172 12.2739 10.708 12.3529 10.907 12.3528C11.106 12.3528 11.2968 12.2737 11.4374 12.1329L19.0132 4.54956Z" fill="#0AA853"/>
</svg>
