<svg width="173" height="60" viewBox="0 0 173 60" fill="none" xmlns="http://www.w3.org/2000/svg">
<path d="M24.5728 5.57617C21.7652 5.57617 19.1779 6.7322 17.3063 8.76902C15.4621 6.7322 12.8473 5.57617 10.0673 5.57617C4.70001 5.57617 0.323604 9.92505 0.268555 15.2648V38.7983H5.41565V15.3749C5.41565 12.7876 7.50752 10.6682 10.0673 10.6682C12.6546 10.6682 14.774 12.7876 14.774 15.3749V38.7983H19.9486V15.3749C19.9486 12.7326 21.9854 10.6682 24.6003 10.6682C27.2151 10.6682 29.2519 12.7326 29.2519 15.3749V38.7983H34.399V15.3749C34.3715 9.9801 29.9951 5.57617 24.5728 5.57617Z" fill="white"/>
<path d="M93.3841 10.9985C96.4668 10.9985 99.1367 12.0995 101.311 14.2189L102.522 15.4024V8.24605L102.192 8.05338C99.5771 6.40191 96.632 5.57617 93.3841 5.57617C88.815 5.57617 84.8514 7.22765 81.6035 10.4755C78.3556 13.7234 76.7317 17.687 76.7317 22.2561C76.7317 26.8527 78.3832 30.8162 81.6035 34.0641C84.8514 37.312 88.815 38.936 93.3841 38.936C96.632 38.936 99.5771 38.1102 102.192 36.4587L102.522 36.2386V29.0546L101.311 30.2382C99.1092 32.4126 96.4943 33.4586 93.3841 33.4586C90.2738 33.4586 87.6589 32.3851 85.457 30.1556C83.2275 27.9537 82.154 25.3388 82.154 22.201C82.154 19.0632 83.2275 16.4484 85.457 14.2464C87.6865 12.072 90.2738 10.9985 93.3841 10.9985Z" fill="white"/>
<path d="M66.878 8.05338V9.67733C63.6301 6.9524 59.9142 5.57617 55.8406 5.57617C51.2715 5.57617 47.308 7.22765 44.0601 10.4755C40.8122 13.7234 39.1882 17.687 39.1882 22.2836C39.1882 26.8527 40.8397 30.8162 44.0601 34.0641C47.308 37.312 51.2715 38.936 55.8406 38.936C59.9142 38.936 63.6301 37.5597 66.878 34.8348V38.1377H72.1352V8.05338H66.878ZM56.0333 33.2384C50.0054 33.2384 45.106 28.339 45.106 22.3111C45.106 16.2832 50.0054 11.3839 56.0333 11.3839C62.0612 11.3839 66.9605 16.2832 66.9605 22.3111C66.9605 28.339 62.0612 33.2384 56.0333 33.2384Z" fill="white"/>
<path d="M156.828 35.4403C174.224 41.0278 167.535 19.5035 167.535 19.5035C170.425 40.9452 152.727 33.1833 151.323 32.5502C153.36 33.8714 155.232 34.9173 156.828 35.4403Z" fill="white"/>
<path d="M143.561 0.704303C133.13 -0.231532 123.496 4.44765 117.606 12.2096C126.909 0.786877 144.112 -0.644403 160.517 21.3202C163.875 25.5865 169.297 21.2652 167.535 17.6594C163.324 8.43871 154.406 1.69519 143.561 0.704303Z" fill="white"/>
<path d="M118.789 12.7325C116.422 15.4299 120.331 20.5495 124.102 17.4942C131.506 11.4664 138.524 8.52124 144.332 7.88817C133.983 3.20899 125.258 4.86047 118.789 12.7325Z" fill="white"/>
<path d="M126.634 55.7534C135.662 61.0656 146.369 60.9831 155.012 56.4415C141.717 62.7997 126.662 56.4966 120.111 29.8528C118.789 24.458 112.156 26.137 112.184 30.2656C112.101 40.4222 117.248 50.2485 126.634 55.7534Z" fill="white"/>
<path d="M145.653 57.5976C147.525 57.5425 152.782 57.3499 154.324 55.9186C157.131 53.9643 155.782 48.3493 151.323 48.8448C139.983 50.1109 131.891 48.5695 126.441 44.9363C131.396 53.7441 138.442 57.5976 145.653 57.5976Z" fill="white"/>
<path d="M111.743 27.816C117.826 4.1724 149.479 35.4954 155.204 39.7342C170.948 51.3771 175.077 31.8346 168.416 20.1091C168.416 20.1091 174.967 42.0737 157.214 36.3762C144.635 32.3576 114.963 -4.0024 111.743 27.816Z" fill="white"/>
<path d="M111.798 29.0271C119.533 11.9894 148.874 35.8808 154.847 40.5875C148.351 35.4954 117.771 5.7964 111.798 29.0271Z" fill="white"/>
<path d="M49.0699 46.3125C47.9414 46.3125 46.8954 46.7804 46.1523 47.6062C45.4091 46.7804 44.3632 46.3125 43.2347 46.3125C41.0602 46.3125 39.2986 48.0741 39.2711 50.221V59.6894H41.363V50.2485C41.363 49.2026 42.2162 48.3493 43.2347 48.3493C44.2806 48.3493 45.1339 49.2026 45.1339 50.2485V59.6894H47.2257V50.2485C47.2257 49.1751 48.0515 48.3493 49.0974 48.3493C50.1433 48.3493 50.9691 49.1751 50.9691 50.2485V59.6894H53.0609V50.2485C53.0059 48.0741 51.2443 46.3125 49.0699 46.3125Z" fill="white"/>
<path d="M63.7405 57.1847C63.4928 57.3223 63.2726 57.4049 63.1349 57.46C61.9514 57.8728 60.7953 57.8178 59.6393 57.2948C58.7035 56.8544 58.0154 56.2489 57.63 55.4782L68.1995 51.6798L68.1169 51.4046C68.0343 51.1568 67.9793 50.9917 67.9517 50.8816C67.8692 50.6339 67.7591 50.3861 67.649 50.1384C66.9609 48.7622 65.8874 47.7163 64.4561 47.0557C62.7771 46.2575 61.0431 46.1749 59.2815 46.808C57.5199 47.441 56.2538 48.5971 55.4556 50.2761C54.6574 51.9551 54.5748 53.6891 55.2079 55.4507C55.8409 57.2122 56.997 58.4784 58.676 59.2766C60.355 60.0748 62.1165 60.1574 63.8506 59.5243C64.2084 59.3867 64.6488 59.1665 65.1718 58.8912L65.5021 58.6986L63.9056 57.1021L63.7405 57.1847ZM63.5203 49.0374C64.3185 49.4228 64.924 49.8907 65.2819 50.4687L56.9694 53.4689C56.8869 52.7808 57.052 52.0376 57.4373 51.2394C57.9878 50.0834 58.8136 49.3127 60.0247 48.8998C61.2357 48.4319 62.3642 48.487 63.5203 49.0374Z" fill="white"/>
<path d="M86.806 47.2484H84.6866V59.4418H86.806V47.2484Z" fill="white"/>
<path d="M86.806 43.1198H84.5765V45.3492H86.806V43.1198Z" fill="white"/>
<path d="M99.8252 47.2483V47.9089C98.504 46.8079 97.0177 46.2574 95.3937 46.2574C93.5496 46.2574 91.9532 46.918 90.632 48.2392C89.3383 49.5329 88.6777 51.1568 88.6777 53.001C88.6777 54.8451 89.3383 56.4415 90.632 57.7627C91.9256 59.0839 93.5221 59.7445 95.3937 59.7445C97.0452 59.7445 98.5315 59.194 99.8252 58.093V59.4417H101.945V47.3309H99.8252V47.2483ZM95.4488 57.3774C93.0266 57.3774 91.0448 55.3956 91.0448 52.9734C91.0448 50.5513 93.0266 48.5695 95.4488 48.5695C97.8985 48.5695 99.8527 50.5513 99.8527 52.9734C99.8527 55.3956 97.8985 57.3774 95.4488 57.3774Z" fill="white"/>
<path d="M80.6131 40.9728V47.8814C79.2919 46.7805 77.8056 46.23 76.1541 46.23C74.31 46.23 72.7135 46.8906 71.4199 48.2117C70.1262 49.5054 69.4381 51.1293 69.4381 52.9735C69.4381 54.8176 70.0987 56.4141 71.4199 57.7352C72.7135 59.0564 74.31 59.717 76.1541 59.717C77.8056 59.717 79.2919 59.1665 80.6131 58.0655V59.4142H82.7325V40.9728H80.6131ZM76.2367 57.3774C73.8145 57.3774 71.8327 55.3957 71.8327 52.9735C71.8327 50.5513 73.787 48.5696 76.2367 48.5696C78.6588 48.5696 80.6406 50.5513 80.6406 52.9735C80.6406 55.3957 78.6588 57.3774 76.2367 57.3774Z" fill="white"/>
</svg>
