<svg width="87" height="30" viewBox="0 0 87 30" fill="none" xmlns="http://www.w3.org/2000/svg">
<path d="M12.2864 2.7881C10.8826 2.7881 9.58897 3.36612 8.65313 4.38453C7.73106 3.36612 6.42364 2.7881 5.03365 2.7881C2.35001 2.7881 0.161802 4.96254 0.134277 7.63243V19.3992H2.70783V7.68748C2.70783 6.39382 3.75376 5.33412 5.03365 5.33412C6.32731 5.33412 7.387 6.39382 7.387 7.68748V19.3992H9.97431V7.68748C9.97431 6.3663 10.9927 5.33412 12.3001 5.33412C13.6076 5.33412 14.626 6.3663 14.626 7.68748V19.3992H17.1995V7.68748C17.1858 4.99007 14.9975 2.7881 12.2864 2.7881Z" fill="#01A2D3"/>
<path d="M46.692 5.49927C48.2334 5.49927 49.5683 6.04976 50.6556 7.10946L51.2611 7.70124V4.12304L51.096 4.02671C49.7885 3.20097 48.316 2.7881 46.692 2.7881C44.4075 2.7881 42.4257 3.61384 40.8018 5.23779C39.1778 6.86174 38.3658 8.84351 38.3658 11.128C38.3658 13.4263 39.1916 15.4081 40.8018 17.0321C42.4257 18.656 44.4075 19.468 46.692 19.468C48.316 19.468 49.7885 19.0551 51.096 18.2294L51.2611 18.1193V14.5273L50.6556 15.1191C49.5546 16.2063 48.2472 16.7293 46.692 16.7293C45.1369 16.7293 43.8295 16.1926 42.7285 15.0778C41.6137 13.9768 41.077 12.6694 41.077 11.1005C41.077 9.53162 41.6137 8.22421 42.7285 7.12322C43.8432 6.036 45.1369 5.49927 46.692 5.49927Z" fill="#01A2D3"/>
<path d="M33.439 4.02671V4.83868C31.815 3.47622 29.9571 2.7881 27.9203 2.7881C25.6358 2.7881 23.654 3.61384 22.03 5.23779C20.4061 6.86174 19.5941 8.84351 19.5941 11.1418C19.5941 13.4263 20.4199 15.4081 22.03 17.0321C23.654 18.656 25.6358 19.468 27.9203 19.468C29.9571 19.468 31.815 18.7799 33.439 17.4174V19.0689H36.0676V4.02671H33.439ZM28.0166 16.6192C25.0027 16.6192 22.553 14.1695 22.553 11.1556C22.553 8.14163 25.0027 5.69194 28.0166 5.69194C31.0306 5.69194 33.4803 8.14163 33.4803 11.1556C33.4803 14.1695 31.0306 16.6192 28.0166 16.6192Z" fill="#01A2D3"/>
<path d="M78.4142 17.7202C87.112 20.5139 83.7677 9.75183 83.7677 9.75183C85.2128 20.4727 76.3636 16.5917 75.6617 16.2752C76.6802 16.9357 77.616 17.4587 78.4142 17.7202Z" fill="#F8A41E"/>
<path d="M71.7807 0.352182C66.5648 -0.115736 61.748 2.22385 58.8029 6.10482C63.4545 0.393469 72.0559 -0.322171 80.2583 10.6601C81.9373 12.7933 84.6484 10.6326 83.7676 8.82975C81.662 4.21939 77.203 0.847625 71.7807 0.352182Z" fill="#01A2D3"/>
<path d="M59.3946 6.36629C58.2111 7.715 60.1653 10.2748 62.0508 8.74717C65.7528 5.73323 69.2622 4.26066 72.1661 3.94413C66.9914 1.60454 62.6288 2.43028 59.3946 6.36629Z" fill="#F8A41E"/>
<path d="M63.317 27.8768C67.831 30.5329 73.1846 30.4916 77.5059 28.2208C70.8587 31.3999 63.3308 28.2483 60.0553 14.9264C59.3947 12.229 56.078 13.0685 56.0918 15.1329C56.0505 20.2112 58.6241 25.1243 63.317 27.8768Z" fill="#01A2D3"/>
<path d="M72.8267 28.7988C73.7625 28.7713 76.3911 28.675 77.1618 27.9593C78.5655 26.9822 77.8912 24.1747 75.6617 24.4224C69.9916 25.0555 65.9455 24.2848 63.2206 22.4682C65.6978 26.8721 69.2209 28.7988 72.8267 28.7988Z" fill="#F8A41E"/>
<path d="M55.8716 13.908C58.913 2.08623 74.7397 17.7477 77.6022 19.8671C85.4743 25.6886 87.5386 15.9173 84.2081 10.0546C84.2081 10.0546 87.4836 21.0369 78.6069 18.1881C72.3175 16.1788 57.4818 -2.00117 55.8716 13.908Z" fill="#01A2D3"/>
<path d="M55.899 14.5136C59.7663 5.99471 74.4369 17.9404 77.4233 20.2937C74.1754 17.7477 58.8855 2.8982 55.899 14.5136Z" fill="#F8A41E"/>
<path d="M24.5349 23.1563C23.9706 23.1563 23.4477 23.3902 23.0761 23.8031C22.7045 23.3902 22.1815 23.1563 21.6173 23.1563C20.53 23.1563 19.6493 24.0371 19.6355 25.1105V29.8448H20.6814V25.1243C20.6814 24.6013 21.1081 24.1747 21.6173 24.1747C22.1402 24.1747 22.5669 24.6013 22.5669 25.1243V29.8448H23.6128V25.1243C23.6128 24.5876 24.0257 24.1747 24.5486 24.1747C25.0716 24.1747 25.4845 24.5876 25.4845 25.1243V29.8448H26.5304V25.1243C26.5029 24.0371 25.6221 23.1563 24.5349 23.1563Z" fill="#F8A41E"/>
<path d="M31.8702 28.5924C31.7464 28.6612 31.6363 28.7025 31.5675 28.73C30.9757 28.9364 30.3977 28.9089 29.8197 28.6474C29.3517 28.4272 29.0077 28.1245 28.815 27.7391L34.0997 25.8399L34.0584 25.7023C34.0172 25.5784 33.9896 25.4959 33.9759 25.4408C33.9346 25.317 33.8795 25.1931 33.8245 25.0692C33.4804 24.3811 32.9437 23.8582 32.2281 23.5279C31.3886 23.1288 30.5215 23.0875 29.6407 23.404C28.76 23.7205 28.1269 24.2986 27.7278 25.1381C27.3287 25.9776 27.2874 26.8446 27.6039 27.7254C27.9205 28.6062 28.4985 29.2392 29.338 29.6383C30.1775 30.0374 31.0583 30.0787 31.9253 29.7622C32.1042 29.6934 32.3244 29.5833 32.5859 29.4457L32.751 29.3493L31.9528 28.5511L31.8702 28.5924ZM31.7601 24.5188C32.1592 24.7114 32.462 24.9454 32.6409 25.2344L28.4847 26.7345C28.4434 26.3904 28.526 26.0188 28.7187 25.6197C28.9939 25.0417 29.4068 24.6564 30.0123 24.4499C30.6179 24.216 31.1821 24.2435 31.7601 24.5188Z" fill="#F8A41E"/>
<path d="M43.4031 23.6242H42.3434V29.7209H43.4031V23.6242Z" fill="#F8A41E"/>
<path d="M43.4031 21.5599H42.2883V22.6746H43.4031V21.5599Z" fill="#F8A41E"/>
<path d="M49.9126 23.6242V23.9545C49.252 23.404 48.5088 23.1288 47.6969 23.1288C46.7748 23.1288 45.9766 23.4591 45.316 24.1197C44.6692 24.7665 44.3389 25.5785 44.3389 26.5005C44.3389 27.4226 44.6692 28.2208 45.316 28.8814C45.9628 29.542 46.761 29.8723 47.6969 29.8723C48.5226 29.8723 49.2658 29.597 49.9126 29.0466V29.7209H50.9723V23.6655H49.9126V23.6242ZM47.7244 28.6887C46.5133 28.6887 45.5224 27.6978 45.5224 26.4868C45.5224 25.2757 46.5133 24.2848 47.7244 24.2848C48.9492 24.2848 49.9264 25.2757 49.9264 26.4868C49.9264 27.6978 48.9492 28.6887 47.7244 28.6887Z" fill="#F8A41E"/>
<path d="M40.3065 20.4864V23.9407C39.6459 23.3902 38.9027 23.115 38.077 23.115C37.1549 23.115 36.3567 23.4453 35.7099 24.1059C35.063 24.7527 34.719 25.5647 34.719 26.4868C34.719 27.4088 35.0493 28.207 35.7099 28.8676C36.3567 29.5282 37.1549 29.8585 38.077 29.8585C38.9027 29.8585 39.6459 29.5833 40.3065 29.0328V29.7071H41.3662V20.4864H40.3065ZM38.1183 28.6887C36.9072 28.6887 35.9163 27.6978 35.9163 26.4868C35.9163 25.2757 36.8934 24.2848 38.1183 24.2848C39.3294 24.2848 40.3202 25.2757 40.3202 26.4868C40.3202 27.6978 39.3294 28.6887 38.1183 28.6887Z" fill="#F8A41E"/>
</svg>
